<svg width="40" height="40" viewBox="0 0 40 40" fill="none" xmlns="http://www.w3.org/2000/svg">
<path d="M6.25 5C5.91848 5 5.60054 5.1317 5.36612 5.36612C5.1317 5.60054 5 5.91848 5 6.25C5 6.58152 5.1317 6.89946 5.36612 7.13388C5.60054 7.3683 5.91848 7.5 6.25 7.5H6.865C7.13643 7.50047 7.40033 7.58928 7.61682 7.753C7.83331 7.91672 7.99063 8.14646 8.065 8.4075L12.03 22.2825C12.2543 23.0655 12.7274 23.7542 13.3778 24.2445C14.0282 24.7348 14.8205 25 15.635 25H27.0575C27.8071 25.0001 28.5396 24.7756 29.1603 24.3554C29.7811 23.9351 30.2616 23.3385 30.54 22.6425L34.225 13.4275C34.3765 13.0483 34.4328 12.6378 34.389 12.2318C34.3452 11.8259 34.2026 11.4368 33.9737 11.0986C33.7449 10.7605 33.4366 10.4836 33.076 10.292C32.7154 10.1005 32.3133 10.0003 31.905 10H11.12L10.4675 7.72C10.2438 6.93693 9.77129 6.24797 9.12135 5.75724C8.47141 5.26652 7.67939 5.00071 6.865 5H6.25ZM14.435 21.5925L11.835 12.5H31.9025L28.2175 21.715C28.1246 21.9467 27.9645 22.1453 27.7578 22.2852C27.551 22.4251 27.3071 22.4999 27.0575 22.5H15.635C15.3636 22.4995 15.0997 22.4107 14.8832 22.247C14.6667 22.0833 14.5094 21.8535 14.435 21.5925ZM16.25 35C16.7425 35 17.2301 34.903 17.6851 34.7145C18.14 34.5261 18.5534 34.2499 18.9017 33.9017C19.2499 33.5534 19.5261 33.14 19.7146 32.6851C19.903 32.2301 20 31.7425 20 31.25C20 30.7575 19.903 30.2699 19.7146 29.8149C19.5261 29.36 19.2499 28.9466 18.9017 28.5983C18.5534 28.2501 18.14 27.9739 17.6851 27.7855C17.2301 27.597 16.7425 27.5 16.25 27.5C15.2554 27.5 14.3016 27.8951 13.5983 28.5983C12.8951 29.3016 12.5 30.2554 12.5 31.25C12.5 32.2446 12.8951 33.1984 13.5983 33.9017C14.3016 34.6049 15.2554 35 16.25 35ZM16.25 32.5C15.9185 32.5 15.6005 32.3683 15.3661 32.1339C15.1317 31.8995 15 31.5815 15 31.25C15 30.9185 15.1317 30.6005 15.3661 30.3661C15.6005 30.1317 15.9185 30 16.25 30C16.5815 30 16.8995 30.1317 17.1339 30.3661C17.3683 30.6005 17.5 30.9185 17.5 31.25C17.5 31.5815 17.3683 31.8995 17.1339 32.1339C16.8995 32.3683 16.5815 32.5 16.25 32.5ZM26.25 35C26.7425 35 27.2301 34.903 27.6851 34.7145C28.14 34.5261 28.5534 34.2499 28.9017 33.9017C29.2499 33.5534 29.5261 33.14 29.7146 32.6851C29.903 32.2301 30 31.7425 30 31.25C30 30.7575 29.903 30.2699 29.7146 29.8149C29.5261 29.36 29.2499 28.9466 28.9017 28.5983C28.5534 28.2501 28.14 27.9739 27.6851 27.7855C27.2301 27.597 26.7425 27.5 26.25 27.5C25.2554 27.5 24.3016 27.8951 23.5984 28.5983C22.8951 29.3016 22.5 30.2554 22.5 31.25C22.5 32.2446 22.8951 33.1984 23.5984 33.9017C24.3016 34.6049 25.2554 35 26.25 35ZM26.25 32.5C25.9185 32.5 25.6005 32.3683 25.3661 32.1339C25.1317 31.8995 25 31.5815 25 31.25C25 30.9185 25.1317 30.6005 25.3661 30.3661C25.6005 30.1317 25.9185 30 26.25 30C26.5815 30 26.8995 30.1317 27.1339 30.3661C27.3683 30.6005 27.5 30.9185 27.5 31.25C27.5 31.5815 27.3683 31.8995 27.1339 32.1339C26.8995 32.3683 26.5815 32.5 26.25 32.5Z" fill="#232323"/>
</svg>
