<svg width="40" height="40" viewBox="0 0 40 40" fill="none" xmlns="http://www.w3.org/2000/svg">
<path d="M35 12.5002L28.3333 15.8335M28.3333 15.8335L27.5 16.2502L20 20.0002M28.3333 15.8335V21.6668M28.3333 15.8335L12.5 7.50016M20 20.0002L4.99999 12.5002M20 20.0002V35.8335M25.9633 5.63683L29.2967 7.38683C32.8817 9.2685 34.675 10.2085 35.6717 11.9002C36.6667 13.5902 36.6667 15.6952 36.6667 19.9002V20.0952C36.6667 24.3035 36.6667 26.4085 35.6717 28.0985C34.675 29.7902 32.8817 30.7318 29.2967 32.6135L25.9633 34.3618C23.0367 35.8985 21.5733 36.6668 20 36.6668C18.4267 36.6668 16.9633 35.9002 14.0367 34.3635L10.7033 32.6135C7.11833 30.7318 5.32499 29.7918 4.32833 28.1002C3.33333 26.4102 3.33333 24.3052 3.33333 20.1002V19.9052C3.33333 15.6968 3.33333 13.5918 4.32833 11.9018C5.32499 10.2102 7.11833 9.2685 10.7033 7.3885L14.0367 5.6385C16.9633 4.10183 18.4267 3.3335 20 3.3335C21.5733 3.3335 23.0367 4.10016 25.9633 5.63683Z" stroke="#232323" stroke-width="2" stroke-linecap="round"/>
</svg>
