<svg width="14" height="14" viewBox="0 0 14 14" fill="none" xmlns="http://www.w3.org/2000/svg">
<path d="M0.365983 0.365983C0.600393 0.131644 0.918278 0 1.24973 0C1.58119 0 1.89907 0.131644 2.13348 0.365983L6.55348 4.78598L10.9735 0.365983C11.2092 0.138285 11.525 0.0122925 11.8527 0.0151405C12.1805 0.0179885 12.494 0.14945 12.7258 0.38121C12.9575 0.61297 13.089 0.926486 13.0918 1.25423C13.0947 1.58198 12.9687 1.89773 12.741 2.13348L8.32098 6.55348L12.741 10.9735C12.9687 11.2092 13.0947 11.525 13.0918 11.8527C13.089 12.1805 12.9575 12.494 12.7258 12.7258C12.494 12.9575 12.1805 13.089 11.8527 13.0918C11.525 13.0947 11.2092 12.9687 10.9735 12.741L6.55348 8.32098L2.13348 12.741C1.89773 12.9687 1.58198 13.0947 1.25423 13.0918C0.926486 13.089 0.61297 12.9575 0.38121 12.7258C0.14945 12.494 0.0179885 12.1805 0.0151405 11.8527C0.0122925 11.525 0.138285 11.2092 0.365983 10.9735L4.78598 6.55348L0.365983 2.13348C0.131644 1.89907 0 1.58119 0 1.24973C0 0.918278 0.131644 0.600393 0.365983 0.365983Z" fill="#0009EA"/>
</svg>
