<svg width="24" height="30" viewBox="0 0 24 30" fill="none" xmlns="http://www.w3.org/2000/svg">
<path d="M11.6668 17.5002C14.8839 17.5002 17.5001 14.8839 17.5001 11.6668C17.5001 8.44975 14.8839 5.8335 11.6668 5.8335C8.44972 5.8335 5.83347 8.44975 5.83347 11.6668C5.83347 14.8839 8.44972 17.5002 11.6668 17.5002ZM11.6668 8.75016C13.2753 8.75016 14.5835 10.0583 14.5835 11.6668C14.5835 13.2754 13.2753 14.5835 11.6668 14.5835C10.0583 14.5835 8.75013 13.2754 8.75013 11.6668C8.75013 10.0583 10.0583 8.75016 11.6668 8.75016Z" fill="#0009EA"/>
<path d="M10.821 28.8954C11.0678 29.0717 11.3635 29.1664 11.6668 29.1664C11.9701 29.1664 12.2658 29.0717 12.5126 28.8954C12.956 28.5819 23.3758 21.0583 23.3335 11.6667C23.3335 5.23396 18.0995 0 11.6668 0C5.23409 0 0.000128388 5.23396 0.000128388 11.6594C-0.0421633 21.0583 10.3776 28.5819 10.821 28.8954ZM11.6668 2.91667C16.4924 2.91667 20.4168 6.84104 20.4168 11.674C20.4474 18.146 14.0176 23.9575 11.6668 25.8635C9.31742 23.956 2.88617 18.1431 2.9168 11.6667C2.9168 6.84104 6.84117 2.91667 11.6668 2.91667Z" fill="#0009EA"/>
</svg>
