<svg width="67" height="70" viewBox="0 0 67 70" fill="none" xmlns="http://www.w3.org/2000/svg">
<g clip-path="url(#clip0_0_121)">
<path d="M8.03535 43.3746C7.89621 42.9671 7.7521 42.5646 7.60302 42.1671C7.45394 41.7695 7.30984 41.3621 7.17069 40.9446H2.80517C2.66603 41.3621 2.5244 41.772 2.38029 42.1745C2.23618 42.5771 2.09456 42.9771 1.95542 43.3746H0C0.387605 42.2714 0.755333 41.2527 1.10318 40.3185C1.45103 39.3843 1.79143 38.4997 2.12437 37.6649C2.45732 36.8301 2.78778 36.035 3.11575 35.2796C3.44372 34.5243 3.78163 33.7789 4.12949 33.0435H5.9234C6.27125 33.7789 6.60916 34.5243 6.93714 35.2796C7.26511 36.035 7.59557 36.8301 7.92851 37.6649C8.26146 38.4997 8.60434 39.3843 8.95716 40.3185C9.30998 41.2527 9.68019 42.2714 10.0678 43.3746H8.04032H8.03535ZM4.98669 35.0411C4.7581 35.5679 4.49721 36.2089 4.20402 36.9642C3.91084 37.7196 3.60522 38.5395 3.28719 39.424H6.68619C6.36815 38.5395 6.06006 37.7146 5.7619 36.9493C5.46374 36.1841 5.20534 35.548 4.98669 35.0411Z" fill="#232323"/>
<path d="M14.3712 43.5237C14.083 43.5237 13.7898 43.5138 13.4916 43.4939C13.1935 43.474 12.9078 43.4492 12.6344 43.4194C12.3611 43.3896 12.1052 43.3573 11.8667 43.3225C11.6282 43.2877 11.4294 43.2504 11.2704 43.2107V35.6822C11.4294 35.6424 11.6282 35.6052 11.8667 35.5704C12.1052 35.5356 12.3611 35.5058 12.6344 35.4809C12.9078 35.4561 13.1935 35.4362 13.4916 35.4213C13.7898 35.4064 14.083 35.3989 14.3712 35.3989C15.4247 35.3989 16.2446 35.5902 16.831 35.9729C17.4174 36.3555 17.7106 36.8897 17.7106 37.5755C17.7106 37.9333 17.6211 38.2513 17.4422 38.5296C17.2633 38.8079 17.0298 39.0166 16.7416 39.1557C17.0994 39.2949 17.4075 39.5135 17.6659 39.8117C17.9243 40.1098 18.0535 40.5322 18.0535 41.0788C18.0535 41.864 17.7454 42.4677 17.1292 42.8901C16.513 43.3125 15.5937 43.5237 14.3712 43.5237ZM14.4159 38.7085C14.8632 38.7085 15.2334 38.6439 15.5266 38.5147C15.8198 38.3855 15.9664 38.1271 15.9664 37.7395C15.9664 37.5506 15.9191 37.3966 15.8247 37.2773C15.7303 37.1581 15.6036 37.0636 15.4446 36.9941C15.2856 36.9245 15.1017 36.8773 14.893 36.8524C14.6843 36.8276 14.4656 36.8152 14.237 36.8152C14.0581 36.8152 13.8519 36.8201 13.6184 36.8301C13.3848 36.84 13.1985 36.8549 13.0593 36.8748V38.7085H14.4159ZM13.0593 42.0329C13.1786 42.0528 13.3749 42.0702 13.6482 42.0851C13.9215 42.1 14.1774 42.1075 14.4159 42.1075C14.9526 42.1075 15.3974 42.0329 15.7502 41.8839C16.103 41.7348 16.2794 41.4515 16.2794 41.0341C16.2794 40.6167 16.1179 40.3459 15.7949 40.1918C15.4719 40.0378 15.052 39.9607 14.5352 39.9607H13.0593V42.0329Z" fill="#232323"/>
<path d="M25.6267 37.0833H23.1072V43.3745H21.3034V37.0833H18.7988V35.5776H25.6267V37.0833Z" fill="#232323"/>
<path d="M34.0198 39.4686C34.0198 40.0847 33.9304 40.6463 33.7515 41.1531C33.5726 41.66 33.3191 42.0923 32.9912 42.4501C32.6632 42.8079 32.2681 43.0862 31.806 43.285C31.3438 43.4837 30.8345 43.5831 30.2779 43.5831C29.7214 43.5831 29.2145 43.4837 28.7573 43.285C28.3001 43.0862 27.9076 42.8079 27.5796 42.4501C27.2516 42.0923 26.9957 41.66 26.8118 41.1531C26.628 40.6463 26.536 40.0847 26.536 39.4686C26.536 38.8524 26.628 38.2933 26.8118 37.7914C26.9957 37.2895 27.2541 36.8597 27.587 36.5019C27.92 36.1441 28.315 35.8683 28.7722 35.6745C29.2294 35.4807 29.7313 35.3838 30.2779 35.3838C30.8245 35.3838 31.3289 35.4807 31.7911 35.6745C32.2532 35.8683 32.6483 36.1441 32.9762 36.5019C33.3042 36.8597 33.5601 37.2895 33.744 37.7914C33.9279 38.2933 34.0198 38.8524 34.0198 39.4686ZM32.1712 39.4686C32.1712 38.6933 32.0048 38.0796 31.6718 37.6274C31.3389 37.1752 30.8742 36.9491 30.2779 36.9491C29.6816 36.9491 29.217 37.1752 28.884 37.6274C28.5511 38.0796 28.3846 38.6933 28.3846 39.4686C28.3846 40.2438 28.5511 40.8749 28.884 41.332C29.217 41.7892 29.6816 42.0178 30.2779 42.0178C30.8742 42.0178 31.3389 41.7892 31.6718 41.332C32.0048 40.8749 32.1712 40.2537 32.1712 39.4686Z" fill="#232323"/>
<path d="M43.1732 33.0435V34.6684H39.9979V43.3746H38.1046V34.6684H34.9292V33.0435H43.1732Z" fill="#232323"/>
<path d="M50.7465 39.4686C50.7465 40.0847 50.657 40.6463 50.4781 41.1531C50.2992 41.66 50.0458 42.0923 49.7178 42.4501C49.3898 42.8079 48.9948 43.0862 48.5326 43.285C48.0705 43.4837 47.5611 43.5831 47.0046 43.5831C46.448 43.5831 45.9411 43.4837 45.484 43.285C45.0268 43.0862 44.6342 42.8079 44.3063 42.4501C43.9783 42.0923 43.7224 41.66 43.5385 41.1531C43.3546 40.6463 43.2627 40.0847 43.2627 39.4686C43.2627 38.8524 43.3546 38.2933 43.5385 37.7914C43.7224 37.2895 43.9808 36.8597 44.3137 36.5019C44.6466 36.1441 45.0417 35.8683 45.4989 35.6745C45.9561 35.4807 46.458 35.3838 47.0046 35.3838C47.5512 35.3838 48.0556 35.4807 48.5177 35.6745C48.9799 35.8683 49.3749 36.1441 49.7029 36.5019C50.0309 36.8597 50.2868 37.2895 50.4707 37.7914C50.6545 38.2933 50.7465 38.8524 50.7465 39.4686ZM48.8979 39.4686C48.8979 38.6933 48.7314 38.0796 48.3985 37.6274C48.0655 37.1752 47.6009 36.9491 47.0046 36.9491C46.4083 36.9491 45.9436 37.1752 45.6107 37.6274C45.2777 38.0796 45.1113 38.6933 45.1113 39.4686C45.1113 40.2438 45.2777 40.8749 45.6107 41.332C45.9436 41.7892 46.4083 42.0178 47.0046 42.0178C47.6009 42.0178 48.0655 41.7892 48.3985 41.332C48.7314 40.8749 48.8979 40.2537 48.8979 39.4686Z" fill="#232323"/>
<path d="M59.6316 39.4834C59.6316 40.0797 59.5545 40.6264 59.4005 41.1233C59.2464 41.6202 59.0253 42.0476 58.7371 42.4054C58.4489 42.7632 58.0886 43.0414 57.6563 43.2402C57.2239 43.439 56.7345 43.5384 56.1878 43.5384C55.8201 43.5384 55.4822 43.4937 55.1741 43.4042C54.866 43.3148 54.6126 43.2154 54.4138 43.106V46.1323H52.6099V35.831C52.9777 35.7316 53.4299 35.6372 53.9666 35.5477C54.5032 35.4583 55.0697 35.4136 55.6661 35.4136C56.2624 35.4136 56.8338 35.508 57.3208 35.6968C57.8078 35.8857 58.2228 36.1565 58.5656 36.5093C58.9085 36.8621 59.1719 37.2895 59.3558 37.7914C59.5396 38.2933 59.6316 38.8573 59.6316 39.4834ZM57.783 39.5132C57.783 38.7082 57.6016 38.0821 57.2388 37.6349C56.8761 37.1876 56.2922 36.964 55.4872 36.964C55.3182 36.964 55.1418 36.9714 54.9579 36.9864C54.7741 37.0013 54.5927 37.0336 54.4138 37.0833V41.5407C54.5728 41.65 54.784 41.7519 55.0474 41.8463C55.3108 41.9407 55.5915 41.988 55.8897 41.988C56.5456 41.988 57.0252 41.7643 57.3283 41.3171C57.6314 40.8699 57.783 40.2686 57.783 39.5132Z" fill="#232323"/>
<path d="M66.6681 37.0684H63.2989V43.3745H61.495V35.5776H66.6681V37.0684Z" fill="#232323"/>
<path d="M36.738 0C37.784 0.467114 38.9344 0.439783 40.0252 0.698186C43.7074 1.5703 47.0965 3.0909 50.257 5.15068C50.421 5.25752 50.5527 5.41405 50.7912 5.6327C47.4717 7.66763 44.2168 9.6628 40.9594 11.6555C40.465 11.9586 39.9979 11.6778 39.5407 11.5337C29.4158 8.37327 18.6622 13.5587 14.8383 23.4576C13.8917 25.9099 13.5016 28.4666 13.5538 31.0805C13.5711 31.9004 13.3351 32.1663 12.5177 32.1563C9.71746 32.1215 6.91478 32.124 4.11458 32.1663C3.27228 32.1787 3.11575 31.8756 3.11327 31.0755C3.09836 14.8011 14.2519 2.17655 30.4121 0.223618C30.5811 0.203741 30.7326 0.186349 30.7997 0H36.7355H36.738Z" fill="url(#paint0_linear_0_121)"/>
<path d="M54.5331 46.9945C54.9828 47.0193 55.435 47.0417 55.9791 47.0715C55.8499 47.8939 55.5518 48.6418 55.1542 49.3201C54.6846 50.1202 54.8834 50.6394 55.5294 51.2333C56.7717 52.3787 57.9196 53.6235 59.1371 54.7963C59.8552 55.487 59.8477 56.0783 59.1371 56.7765C56.2499 59.6041 53.3802 62.4465 50.5228 65.3014C49.8619 65.9623 49.3103 65.9971 48.6494 65.3014C47.4543 64.0491 46.1896 62.8639 45.0069 61.5992C44.4479 61.0029 43.9882 60.9855 43.1882 61.2042C41.1582 61.7607 40.5047 62.9434 40.7929 64.9659C40.9669 66.1784 40.8352 67.4357 40.8103 68.673C40.7929 69.5576 40.3805 69.9998 39.4189 69.9924C35.3391 69.9626 31.2594 69.9551 27.1796 69.9949C26.054 70.0048 25.8801 69.3513 25.8751 68.4966C25.8627 66.7648 25.8379 65.0305 25.8851 63.3012C25.9074 62.5359 25.6937 62.1309 24.9285 61.8427C22.3146 60.8588 22.337 60.8315 20.3567 62.8838C19.5567 63.7137 18.6796 64.4715 17.8944 65.3163C17.2633 65.9946 16.7366 65.925 16.1254 65.3113C13.2481 62.4192 10.361 59.5345 7.46885 56.6548C6.83029 56.0187 6.89986 55.4597 7.51606 54.8584C8.75341 53.6459 9.94356 52.3886 11.1983 51.196C11.7971 50.627 11.9114 50.15 11.4965 49.3772C10.2492 47.0491 10.2864 47.0292 12.858 47.0292C15.124 47.0292 17.3925 47.0566 19.6585 47.0143C20.4462 46.9994 21.0027 47.1932 21.5816 47.7945C28.3523 54.8137 38.7183 54.6844 45.3225 47.5063C45.7275 47.0665 46.1225 47.0268 46.6194 47.0243C48.6792 47.0168 50.739 46.9994 52.7988 46.987C53.3752 46.6118 53.9516 46.582 54.5281 46.987L54.5331 46.9945Z" fill="url(#paint1_linear_0_121)"/>
<path d="M32.8595 32.1813C31.0879 32.1813 29.3139 32.159 27.5423 32.1937C26.946 32.2062 26.5957 32.0471 26.2702 31.5005C24.4365 28.4171 24.598 23.7683 28.6902 21.3309C39.0115 15.1863 49.1861 8.79083 59.4253 2.50467C59.8925 2.21894 60.3621 1.7071 60.9832 2.13694C61.823 2.71587 61.428 3.29727 60.9609 3.90353C57.2538 8.73865 53.5641 13.5887 49.8545 18.4238C46.5723 22.7024 43.2528 26.9561 39.9979 31.2545C39.4662 31.9552 38.932 32.2385 38.0549 32.2012C36.3256 32.1291 34.5938 32.1788 32.862 32.1788L32.8595 32.1813Z" fill="#0009EA"/>
<path d="M58.6153 32.1339C57.1742 32.1339 55.7307 32.0992 54.292 32.1488C53.5342 32.1737 53.2808 31.9277 53.3081 31.16C53.4348 27.592 52.6721 24.2129 50.975 21.0673C50.6893 20.5381 50.7788 20.1554 51.1067 19.7231C52.9975 17.2335 54.8958 14.7489 56.7543 12.2319C57.214 11.6107 57.45 11.6331 57.8973 12.2443C62.0466 17.9317 63.9573 24.3123 63.925 31.3215C63.9225 31.9849 63.7039 32.1712 63.0678 32.1563C61.5845 32.119 60.1012 32.1439 58.6178 32.1439C58.6178 32.1414 58.6178 32.1389 58.6178 32.1364L58.6153 32.1339Z" fill="#0009EA"/>
<path d="M38.4276 26.0986C38.4549 28.0689 36.9169 29.669 34.9814 29.6889C33.0185 29.7087 31.3612 28.0888 31.3389 26.1209C31.3165 24.2674 32.9787 22.6126 34.8919 22.5877C36.8001 22.5604 38.4027 24.1531 38.4301 26.0986H38.4276Z" fill="#FDFDFE"/>
<path d="M36.5591 25.9992C36.5815 26.9061 35.8883 27.6764 35.0062 27.7236C34.144 27.7708 33.3142 27.0353 33.2645 26.1856C33.2098 25.2439 33.9527 24.4314 34.8894 24.4016C35.7715 24.3743 36.5368 25.1073 36.5591 25.9992Z" fill="#020BEA"/>
</g>
<defs>
<linearGradient id="paint0_linear_0_121" x1="26.9522" y1="0" x2="26.9522" y2="32.1666" gradientUnits="userSpaceOnUse">
<stop stop-color="#80D1FF"/>
<stop offset="0.598958" stop-color="#0009EA"/>
<stop offset="1" stop-color="#0009EA"/>
</linearGradient>
<linearGradient id="paint1_linear_0_121" x1="33.3469" y1="46.6943" x2="33.3469" y2="69.995" gradientUnits="userSpaceOnUse">
<stop stop-color="#0009EA"/>
<stop offset="0.334375" stop-color="#0009EA"/>
<stop offset="1" stop-color="#80D1FF"/>
</linearGradient>
<clipPath id="clip0_0_121">
<rect width="66.6681" height="70" fill="white"/>
</clipPath>
</defs>
</svg>
