<svg width="30" height="25" viewBox="0 0 30 25" fill="none" xmlns="http://www.w3.org/2000/svg">
<path d="M1.5418 2.37533V0.916992C1.15502 0.916992 0.784092 1.07064 0.510601 1.34413C0.237111 1.61762 0.0834656 1.98855 0.0834656 2.37533H1.5418ZM27.7918 2.37533H29.2501C29.2501 1.98855 29.0965 1.61762 28.823 1.34413C28.5495 1.07064 28.1786 0.916992 27.7918 0.916992V2.37533ZM1.5418 3.83366H27.7918V0.916992H1.5418V3.83366ZM26.3335 2.37533V19.8753H29.2501V2.37533H26.3335ZM24.8751 21.3337H4.45847V24.2503H24.8751V21.3337ZM3.00013 19.8753V2.37533H0.0834656V19.8753H3.00013ZM4.45847 21.3337C4.07169 21.3337 3.70076 21.18 3.42727 20.9065C3.15378 20.633 3.00013 20.2621 3.00013 19.8753H0.0834656C0.0834656 21.0356 0.544402 22.1484 1.36487 22.9689C2.18535 23.7894 3.29814 24.2503 4.45847 24.2503V21.3337ZM26.3335 19.8753C26.3335 20.2621 26.1798 20.633 25.9063 20.9065C25.6328 21.18 25.2619 21.3337 24.8751 21.3337V24.2503C26.0355 24.2503 27.1483 23.7894 27.9687 22.9689C28.7892 22.1484 29.2501 21.0356 29.2501 19.8753H26.3335Z" fill="#0009EA"/>
<path d="M1.54179 2.37549L14.6668 15.5005L27.7918 2.37549" stroke="#0009EA" stroke-width="2" stroke-linecap="round" stroke-linejoin="round"/>
</svg>
