<svg width="30" height="30" viewBox="0 0 30 30" fill="none" xmlns="http://www.w3.org/2000/svg">
<path fill-rule="evenodd" clip-rule="evenodd" d="M10.0843 20.1676C15.6916 25.7748 20.8876 26.3888 22.413 26.4457C24.2564 26.5128 26.1376 25.0078 26.9514 23.4663C25.6535 21.9438 23.9632 20.7626 22.1112 19.4821C21.0203 20.573 19.6757 22.6001 17.882 21.8738C16.8626 21.464 14.3455 20.3046 12.1464 18.104C9.94575 15.9048 8.78783 13.3878 8.37512 12.3698C7.64887 10.5746 9.68179 9.22568 10.7741 8.13339C9.49366 6.25214 8.33283 4.51818 6.81325 3.28589C5.24991 4.10255 3.73616 5.96922 3.80471 7.83735C3.86158 9.36276 4.47554 14.5588 10.0843 20.1676ZM22.3051 29.3594C20.2051 29.2821 14.2537 28.4611 8.02075 22.2282C1.78929 15.9967 0.968247 10.0467 0.889497 7.94526C0.77283 4.74276 3.22575 1.63214 6.05929 0.417347C6.4005 0.270007 6.77417 0.21391 7.1436 0.254561C7.51304 0.295212 7.86557 0.431214 8.16658 0.649222C10.5116 2.35985 12.1289 4.95131 13.5187 6.98131C13.8078 7.40342 13.9402 7.91333 13.8931 8.42279C13.846 8.93224 13.6222 9.40919 13.2605 9.7711L11.283 11.7501C11.7424 12.7636 12.6772 14.5107 14.2085 16.0419C15.7397 17.5732 17.4868 18.508 18.5018 18.9673L20.4778 16.9898C20.8411 16.6274 21.3201 16.404 21.8312 16.3584C22.3423 16.3128 22.8532 16.448 23.2749 16.7405C25.3457 18.1755 27.7782 19.7694 29.5516 22.0401C29.7873 22.3432 29.9372 22.7042 29.9857 23.0852C30.0342 23.4661 29.9795 23.8531 29.8272 24.2057C28.6066 27.0538 25.5178 29.4776 22.3051 29.3594Z" fill="#0009EA"/>
</svg>
