<svg width="40" height="40" viewBox="0 0 40 40" fill="none" xmlns="http://www.w3.org/2000/svg">
<path d="M20 25C22.7614 25 25 22.7614 25 20C25 17.2386 22.7614 15 20 15C17.2386 15 15 17.2386 15 20C15 22.7614 17.2386 25 20 25Z" stroke="#232323" stroke-width="2"/>
<path d="M22.9417 3.58683C22.33 3.3335 21.5533 3.3335 20 3.3335C18.4467 3.3335 17.67 3.3335 17.0583 3.58683C16.6536 3.75435 16.2859 3.99999 15.9762 4.3097C15.6665 4.61941 15.4208 4.98713 15.2533 5.39183C15.1 5.7635 15.0383 6.1985 15.015 6.83016C15.0046 7.28681 14.8783 7.73333 14.648 8.12778C14.4177 8.52223 14.0909 8.85167 13.6983 9.08516C13.2998 9.30857 12.8511 9.427 12.3942 9.42933C11.9374 9.43166 11.4874 9.31782 11.0867 9.0985C10.5267 8.80183 10.1217 8.6385 9.71999 8.58516C8.84385 8.46995 7.95782 8.70734 7.25666 9.24516C6.73332 9.65016 6.34332 10.3218 5.56665 11.6668C4.78999 13.0118 4.39999 13.6835 4.31499 14.3418C4.25771 14.7759 4.28652 15.217 4.39977 15.64C4.51301 16.0629 4.70847 16.4594 4.97499 16.8068C5.22165 17.1268 5.56665 17.3952 6.10165 17.7318C6.88999 18.2268 7.39666 19.0702 7.39666 20.0002C7.39666 20.9302 6.88999 21.7735 6.10165 22.2668C5.56665 22.6052 5.21999 22.8735 4.97499 23.1935C4.70847 23.5409 4.51301 23.9374 4.39977 24.3603C4.28652 24.7833 4.25771 25.2244 4.31499 25.6585C4.40165 26.3152 4.78999 26.9885 5.56499 28.3335C6.34332 29.6785 6.73166 30.3502 7.25666 30.7552C7.60405 31.0217 8.00055 31.2171 8.4235 31.3304C8.84645 31.4436 9.28757 31.4724 9.72166 31.4152C10.1217 31.3618 10.5267 31.1985 11.0867 30.9018C11.4874 30.6825 11.9374 30.5687 12.3942 30.571C12.8511 30.5733 13.2998 30.6918 13.6983 30.9152C14.5033 31.3818 14.9817 32.2402 15.015 33.1702C15.0383 33.8035 15.0983 34.2368 15.2533 34.6085C15.4208 35.0132 15.6665 35.3809 15.9762 35.6906C16.2859 36.0003 16.6536 36.246 17.0583 36.4135C17.67 36.6668 18.4467 36.6668 20 36.6668C21.5533 36.6668 22.33 36.6668 22.9417 36.4135C23.3464 36.246 23.7141 36.0003 24.0238 35.6906C24.3335 35.3809 24.5791 35.0132 24.7467 34.6085C24.9 34.2368 24.9617 33.8035 24.985 33.1702C25.0183 32.2402 25.4967 31.3802 26.3017 30.9152C26.7002 30.6918 27.1489 30.5733 27.6058 30.571C28.0626 30.5687 28.5126 30.6825 28.9133 30.9018C29.4733 31.1985 29.8783 31.3618 30.2783 31.4152C30.7124 31.4724 31.1535 31.4436 31.5765 31.3304C31.9994 31.2171 32.3959 31.0217 32.7433 30.7552C33.2683 30.3518 33.6567 29.6785 34.4333 28.3335C35.21 26.9885 35.6 26.3168 35.685 25.6585C35.7423 25.2244 35.7135 24.7833 35.6002 24.3603C35.487 23.9374 35.2915 23.5409 35.025 23.1935C34.7783 22.8735 34.4333 22.6052 33.8983 22.2685C33.5079 22.0312 33.1842 21.6985 32.9577 21.3017C32.7311 20.9049 32.6092 20.457 32.6033 20.0002C32.6033 19.0702 33.11 18.2268 33.8983 17.7335C34.4333 17.3952 34.78 17.1268 35.025 16.8068C35.2915 16.4594 35.487 16.0629 35.6002 15.64C35.7135 15.217 35.7423 14.7759 35.685 14.3418C35.5983 13.6852 35.21 13.0118 34.435 11.6668C33.6567 10.3218 33.2683 9.65016 32.7433 9.24516C32.3959 8.97865 31.9994 8.78318 31.5765 8.66994C31.1535 8.5567 30.7124 8.52789 30.2783 8.58516C29.8783 8.6385 29.4733 8.80183 28.9117 9.0985C28.5111 9.31752 28.0615 9.4312 27.6049 9.42887C27.1484 9.42654 26.7 9.30827 26.3017 9.08516C25.9091 8.85167 25.5823 8.52223 25.352 8.12778C25.1217 7.73333 24.9954 7.28681 24.985 6.83016C24.9617 6.19683 24.9017 5.7635 24.7467 5.39183C24.5791 4.98713 24.3335 4.61941 24.0238 4.3097C23.7141 3.99999 23.3464 3.75435 22.9417 3.58683Z" stroke="#232323" stroke-width="2"/>
</svg>
